<mxfile host="www.draw.io" modified="2019-11-13T00:14:06.554Z" agent="Mozilla/5.0 (X11; Linux x86_64) AppleWebKit/537.36 (KHTML, like Gecko) Chrome/78.0.3904.87 Safari/537.36" etag="39ayH984AX4EUZt5qfzX" version="12.2.4" type="github" pages="1">
  <diagram id="Zye8gfGC0ZnLIR6sLazX" name="Page-1">
    <mxGraphModel dx="1341" dy="711" grid="1" gridSize="10" guides="1" tooltips="1" connect="1" arrows="1" fold="1" page="1" pageScale="1" pageWidth="850" pageHeight="1100" math="0" shadow="0">
      <root>
        <mxCell id="0"/>
        <mxCell id="1" parent="0"/>
        <mxCell id="Lpm88H_YI4wZjYLgMCmQ-2" value="" style="rounded=0;whiteSpace=wrap;html=1;strokeWidth=2;" parent="1" vertex="1">
          <mxGeometry x="55" y="90" width="280" height="390" as="geometry"/>
        </mxCell>
        <mxCell id="Lpm88H_YI4wZjYLgMCmQ-3" value="&lt;h1 style=&quot;font-size: 28px&quot;&gt;Tela Inicial (Index)&lt;/h1&gt;" style="text;html=1;strokeColor=none;fillColor=none;align=center;verticalAlign=middle;whiteSpace=wrap;rounded=0;" parent="1" vertex="1">
          <mxGeometry x="60" y="20" width="270" height="70" as="geometry"/>
        </mxCell>
        <mxCell id="Lpm88H_YI4wZjYLgMCmQ-6" value="" style="whiteSpace=wrap;html=1;aspect=fixed;strokeWidth=2;" parent="1" vertex="1">
          <mxGeometry x="240" y="110" width="80" height="80" as="geometry"/>
        </mxCell>
        <mxCell id="Lpm88H_YI4wZjYLgMCmQ-7" value="" style="endArrow=none;html=1;" parent="1" edge="1">
          <mxGeometry width="50" height="50" relative="1" as="geometry">
            <mxPoint x="250" y="130" as="sourcePoint"/>
            <mxPoint x="310" y="130" as="targetPoint"/>
          </mxGeometry>
        </mxCell>
        <mxCell id="Lpm88H_YI4wZjYLgMCmQ-8" value="" style="endArrow=none;html=1;" parent="1" edge="1">
          <mxGeometry width="50" height="50" relative="1" as="geometry">
            <mxPoint x="250" y="149.5" as="sourcePoint"/>
            <mxPoint x="310" y="149.5" as="targetPoint"/>
          </mxGeometry>
        </mxCell>
        <mxCell id="Lpm88H_YI4wZjYLgMCmQ-9" value="" style="endArrow=none;html=1;" parent="1" edge="1">
          <mxGeometry width="50" height="50" relative="1" as="geometry">
            <mxPoint x="250" y="170" as="sourcePoint"/>
            <mxPoint x="310" y="170" as="targetPoint"/>
          </mxGeometry>
        </mxCell>
        <mxCell id="Lpm88H_YI4wZjYLgMCmQ-10" value="" style="endArrow=classic;html=1;" parent="1" edge="1">
          <mxGeometry width="50" height="50" relative="1" as="geometry">
            <mxPoint x="270" y="140" as="sourcePoint"/>
            <mxPoint x="380" y="80" as="targetPoint"/>
          </mxGeometry>
        </mxCell>
        <mxCell id="Lpm88H_YI4wZjYLgMCmQ-12" value="&lt;h1&gt;&lt;span&gt;Menu&lt;/span&gt;&lt;/h1&gt;&lt;h1&gt;&lt;span style=&quot;font-weight: normal&quot;&gt;&lt;font style=&quot;font-size: 14px&quot;&gt;Contem 2 itens: Regras do jogo e informacoes sobre o projeto&lt;/font&gt;&lt;/span&gt;&lt;br&gt;&lt;/h1&gt;" style="text;html=1;strokeColor=#000000;fillColor=none;spacing=5;spacingTop=-20;whiteSpace=wrap;overflow=hidden;rounded=0;strokeWidth=1;" parent="1" vertex="1">
          <mxGeometry x="380" y="30" width="190" height="150" as="geometry"/>
        </mxCell>
        <mxCell id="Lpm88H_YI4wZjYLgMCmQ-14" value="" style="rounded=0;whiteSpace=wrap;html=1;strokeColor=#000000;strokeWidth=1;" parent="1" vertex="1">
          <mxGeometry x="90" y="285" width="210" height="60" as="geometry"/>
        </mxCell>
        <mxCell id="Lpm88H_YI4wZjYLgMCmQ-15" value="" style="endArrow=classic;html=1;" parent="1" edge="1">
          <mxGeometry width="50" height="50" relative="1" as="geometry">
            <mxPoint x="180" y="315" as="sourcePoint"/>
            <mxPoint x="380" y="285" as="targetPoint"/>
          </mxGeometry>
        </mxCell>
        <mxCell id="Lpm88H_YI4wZjYLgMCmQ-16" value="&lt;h1&gt;&lt;span&gt;Botao&lt;/span&gt;&lt;/h1&gt;&lt;h1&gt;&lt;span style=&quot;font-size: 14px ; font-weight: normal&quot;&gt;Vai para a tela de leitura do&amp;nbsp;&lt;/span&gt;&lt;span style=&quot;font-weight: normal&quot;&gt;&lt;font style=&quot;font-size: 14px&quot;&gt;QRCODE&lt;/font&gt;&lt;/span&gt;&lt;/h1&gt;" style="text;html=1;strokeColor=#000000;fillColor=none;spacing=5;spacingTop=-20;whiteSpace=wrap;overflow=hidden;rounded=0;strokeWidth=1;" parent="1" vertex="1">
          <mxGeometry x="380" y="200" width="190" height="130" as="geometry"/>
        </mxCell>
        <mxCell id="Lpm88H_YI4wZjYLgMCmQ-18" value="" style="rounded=0;whiteSpace=wrap;html=1;strokeWidth=2;" parent="1" vertex="1">
          <mxGeometry x="55" y="560" width="280" height="390" as="geometry"/>
        </mxCell>
        <mxCell id="Lpm88H_YI4wZjYLgMCmQ-19" value="&lt;h1 style=&quot;font-size: 28px&quot;&gt;Leitura do QRCODE&lt;/h1&gt;" style="text;html=1;strokeColor=none;fillColor=none;align=center;verticalAlign=middle;whiteSpace=wrap;rounded=0;" parent="1" vertex="1">
          <mxGeometry x="60" y="490" width="270" height="70" as="geometry"/>
        </mxCell>
        <mxCell id="Lpm88H_YI4wZjYLgMCmQ-20" value="" style="endArrow=classic;html=1;" parent="1" edge="1">
          <mxGeometry width="50" height="50" relative="1" as="geometry">
            <mxPoint x="225" y="440" as="sourcePoint"/>
            <mxPoint x="380" y="410" as="targetPoint"/>
          </mxGeometry>
        </mxCell>
        <mxCell id="Lpm88H_YI4wZjYLgMCmQ-21" value="&lt;h1&gt;&lt;span&gt;Background&lt;/span&gt;&lt;/h1&gt;&lt;h1&gt;&lt;span style=&quot;font-size: 14px ; font-weight: 400&quot;&gt;Imagem.&lt;/span&gt;&lt;/h1&gt;" style="text;html=1;strokeColor=#000000;fillColor=none;spacing=5;spacingTop=-20;whiteSpace=wrap;overflow=hidden;rounded=0;strokeWidth=1;" parent="1" vertex="1">
          <mxGeometry x="380" y="345" width="190" height="130" as="geometry"/>
        </mxCell>
        <mxCell id="Lpm88H_YI4wZjYLgMCmQ-25" value="" style="rounded=0;whiteSpace=wrap;html=1;strokeColor=#000000;strokeWidth=2;" parent="1" vertex="1">
          <mxGeometry x="85" y="660" width="220" height="190" as="geometry"/>
        </mxCell>
        <mxCell id="Lpm88H_YI4wZjYLgMCmQ-26" value="" style="endArrow=classic;html=1;" parent="1" edge="1">
          <mxGeometry width="50" height="50" relative="1" as="geometry">
            <mxPoint x="190" y="620" as="sourcePoint"/>
            <mxPoint x="380" y="590" as="targetPoint"/>
          </mxGeometry>
        </mxCell>
        <mxCell id="Lpm88H_YI4wZjYLgMCmQ-27" value="&lt;h1&gt;&lt;span&gt;Background&lt;/span&gt;&lt;/h1&gt;&lt;h1&gt;&lt;span style=&quot;font-size: 14px ; font-weight: 400&quot;&gt;Imagem da camera com sombreamento.&lt;/span&gt;&lt;/h1&gt;" style="text;html=1;strokeColor=#000000;fillColor=none;spacing=5;spacingTop=-20;whiteSpace=wrap;overflow=hidden;rounded=0;strokeWidth=1;" parent="1" vertex="1">
          <mxGeometry x="380" y="530" width="190" height="130" as="geometry"/>
        </mxCell>
        <mxCell id="Lpm88H_YI4wZjYLgMCmQ-28" value="" style="endArrow=classic;html=1;" parent="1" edge="1">
          <mxGeometry width="50" height="50" relative="1" as="geometry">
            <mxPoint x="195" y="760" as="sourcePoint"/>
            <mxPoint x="380" y="740" as="targetPoint"/>
          </mxGeometry>
        </mxCell>
        <mxCell id="Lpm88H_YI4wZjYLgMCmQ-29" value="&lt;h1&gt;&lt;span&gt;Background&lt;/span&gt;&lt;/h1&gt;&lt;h1&gt;&lt;span style=&quot;font-size: 14px ; font-weight: 400&quot;&gt;Imagem da camera sem sombreamento (denotando foco).&lt;/span&gt;&lt;/h1&gt;" style="text;html=1;strokeColor=#000000;fillColor=none;spacing=5;spacingTop=-20;whiteSpace=wrap;overflow=hidden;rounded=0;strokeWidth=1;" parent="1" vertex="1">
          <mxGeometry x="380" y="690" width="190" height="150" as="geometry"/>
        </mxCell>
        <mxCell id="Lpm88H_YI4wZjYLgMCmQ-30" value="" style="rounded=0;whiteSpace=wrap;html=1;strokeWidth=2;" parent="1" vertex="1">
          <mxGeometry x="70" y="1220" width="280" height="390" as="geometry"/>
        </mxCell>
        <mxCell id="Lpm88H_YI4wZjYLgMCmQ-31" value="&lt;h1 style=&quot;font-size: 28px&quot;&gt;Informacoes da pergunta&lt;/h1&gt;" style="text;html=1;strokeColor=none;fillColor=none;align=center;verticalAlign=middle;whiteSpace=wrap;rounded=0;" parent="1" vertex="1">
          <mxGeometry x="75" y="1140" width="270" height="70" as="geometry"/>
        </mxCell>
        <mxCell id="Lpm88H_YI4wZjYLgMCmQ-34" value="" style="endArrow=none;html=1;entryX=1;entryY=0.154;entryDx=0;entryDy=0;entryPerimeter=0;" parent="1" target="Lpm88H_YI4wZjYLgMCmQ-30" edge="1">
          <mxGeometry width="50" height="50" relative="1" as="geometry">
            <mxPoint x="70" y="1280" as="sourcePoint"/>
            <mxPoint x="120" y="1230" as="targetPoint"/>
          </mxGeometry>
        </mxCell>
        <mxCell id="Lpm88H_YI4wZjYLgMCmQ-35" value="&lt;font style=&quot;font-size: 20px&quot;&gt;A pergunta&lt;/font&gt;" style="text;html=1;strokeColor=none;fillColor=none;align=center;verticalAlign=middle;whiteSpace=wrap;rounded=0;" parent="1" vertex="1">
          <mxGeometry x="110" y="1230" width="190" height="40" as="geometry"/>
        </mxCell>
        <mxCell id="Lpm88H_YI4wZjYLgMCmQ-36" value="" style="endArrow=none;html=1;entryX=1;entryY=0.154;entryDx=0;entryDy=0;entryPerimeter=0;" parent="1" edge="1">
          <mxGeometry width="50" height="50" relative="1" as="geometry">
            <mxPoint x="70" y="1340" as="sourcePoint"/>
            <mxPoint x="350" y="1340.06" as="targetPoint"/>
          </mxGeometry>
        </mxCell>
        <mxCell id="Lpm88H_YI4wZjYLgMCmQ-37" value="&lt;font style=&quot;font-size: 20px&quot;&gt;Alternativa correta&lt;/font&gt;" style="text;html=1;strokeColor=none;fillColor=none;align=center;verticalAlign=middle;whiteSpace=wrap;rounded=0;" parent="1" vertex="1">
          <mxGeometry x="110" y="1290" width="190" height="40" as="geometry"/>
        </mxCell>
        <mxCell id="Lpm88H_YI4wZjYLgMCmQ-39" value="" style="endArrow=none;html=1;entryX=1;entryY=0.154;entryDx=0;entryDy=0;entryPerimeter=0;" parent="1" edge="1">
          <mxGeometry width="50" height="50" relative="1" as="geometry">
            <mxPoint x="70" y="1450" as="sourcePoint"/>
            <mxPoint x="350" y="1450.06" as="targetPoint"/>
          </mxGeometry>
        </mxCell>
        <mxCell id="Lpm88H_YI4wZjYLgMCmQ-40" value="&lt;font style=&quot;font-size: 18px&quot;&gt;Texto (Resumo do embasamento teorico que justifica a alternativa correta)&lt;/font&gt;" style="text;html=1;strokeColor=none;fillColor=none;align=center;verticalAlign=middle;whiteSpace=wrap;rounded=0;" parent="1" vertex="1">
          <mxGeometry x="115" y="1350" width="190" height="90" as="geometry"/>
        </mxCell>
        <mxCell id="Lpm88H_YI4wZjYLgMCmQ-45" value="&lt;h1&gt;&lt;span style=&quot;font-weight: 400&quot;&gt;&lt;font style=&quot;font-size: 21px&quot;&gt;Link&lt;/font&gt;&lt;/span&gt;&lt;br&gt;&lt;/h1&gt;" style="text;html=1;strokeColor=#000000;fillColor=none;spacing=5;spacingTop=-20;whiteSpace=wrap;overflow=hidden;rounded=0;strokeWidth=1;align=center;" parent="1" vertex="1">
          <mxGeometry x="135" y="1470" width="150" height="40" as="geometry"/>
        </mxCell>
        <mxCell id="Lpm88H_YI4wZjYLgMCmQ-46" value="" style="rounded=0;whiteSpace=wrap;html=1;strokeColor=#000000;strokeWidth=2;" parent="1" vertex="1">
          <mxGeometry x="90" y="1550" width="100" height="30" as="geometry"/>
        </mxCell>
        <mxCell id="Lpm88H_YI4wZjYLgMCmQ-47" value="" style="rounded=0;whiteSpace=wrap;html=1;strokeColor=#000000;strokeWidth=2;" parent="1" vertex="1">
          <mxGeometry x="220" y="1550" width="100" height="30" as="geometry"/>
        </mxCell>
        <mxCell id="Lpm88H_YI4wZjYLgMCmQ-52" value="" style="curved=1;endArrow=classic;html=1;entryX=-0.005;entryY=0.421;entryDx=0;entryDy=0;entryPerimeter=0;" parent="1" target="Lpm88H_YI4wZjYLgMCmQ-53" edge="1">
          <mxGeometry width="50" height="50" relative="1" as="geometry">
            <mxPoint x="170" y="1570" as="sourcePoint"/>
            <mxPoint x="430" y="1250" as="targetPoint"/>
            <Array as="points">
              <mxPoint x="220" y="1520"/>
              <mxPoint x="370" y="1520"/>
              <mxPoint x="350" y="1380"/>
              <mxPoint x="380" y="1300"/>
              <mxPoint x="390" y="1260"/>
            </Array>
          </mxGeometry>
        </mxCell>
        <mxCell id="Lpm88H_YI4wZjYLgMCmQ-53" value="&lt;h1&gt;&lt;span&gt;Botao&lt;/span&gt;&lt;/h1&gt;&lt;h1&gt;&lt;span style=&quot;font-size: 14px ; font-weight: 400&quot;&gt;Volta para a tela inicial&lt;/span&gt;&lt;/h1&gt;" style="text;html=1;strokeColor=#000000;fillColor=none;spacing=5;spacingTop=-20;whiteSpace=wrap;overflow=hidden;rounded=0;strokeWidth=1;" parent="1" vertex="1">
          <mxGeometry x="440" y="1210" width="190" height="95" as="geometry"/>
        </mxCell>
        <mxCell id="Lpm88H_YI4wZjYLgMCmQ-55" value="" style="curved=1;endArrow=classic;html=1;entryX=-0.005;entryY=0.326;entryDx=0;entryDy=0;entryPerimeter=0;" parent="1" target="Lpm88H_YI4wZjYLgMCmQ-56" edge="1">
          <mxGeometry width="50" height="50" relative="1" as="geometry">
            <mxPoint x="295" y="1565" as="sourcePoint"/>
            <mxPoint x="430" y="1350" as="targetPoint"/>
            <Array as="points">
              <mxPoint x="325" y="1545"/>
              <mxPoint x="375" y="1505"/>
              <mxPoint x="375" y="1420"/>
              <mxPoint x="375" y="1360"/>
            </Array>
          </mxGeometry>
        </mxCell>
        <mxCell id="Lpm88H_YI4wZjYLgMCmQ-56" value="&lt;h1&gt;&lt;span&gt;Botao&lt;/span&gt;&lt;/h1&gt;&lt;h1&gt;&lt;span style=&quot;font-size: 14px ; font-weight: 400&quot;&gt;Volta para a leitura do QRCODE&lt;/span&gt;&lt;/h1&gt;" style="text;html=1;strokeColor=#000000;fillColor=none;spacing=5;spacingTop=-20;whiteSpace=wrap;overflow=hidden;rounded=0;strokeWidth=1;" parent="1" vertex="1">
          <mxGeometry x="440" y="1320" width="190" height="110" as="geometry"/>
        </mxCell>
        <mxCell id="Lpm88H_YI4wZjYLgMCmQ-58" value="&lt;h1&gt;&lt;span&gt;Background&lt;/span&gt;&lt;/h1&gt;&lt;h1&gt;&lt;span style=&quot;font-size: 14px ; font-weight: 400&quot;&gt;Cor varia de acordo com a dificuldade da questao (azul amarelo e vermelho)&lt;/span&gt;&lt;br&gt;&lt;/h1&gt;" style="text;html=1;strokeColor=#000000;fillColor=none;spacing=5;spacingTop=-20;whiteSpace=wrap;overflow=hidden;rounded=0;strokeWidth=1;" parent="1" vertex="1">
          <mxGeometry x="440" y="1455" width="190" height="145" as="geometry"/>
        </mxCell>
        <mxCell id="Lpm88H_YI4wZjYLgMCmQ-60" value="" style="endArrow=classic;html=1;entryX=0;entryY=0.31;entryDx=0;entryDy=0;entryPerimeter=0;" parent="1" target="Lpm88H_YI4wZjYLgMCmQ-58" edge="1">
          <mxGeometry width="50" height="50" relative="1" as="geometry">
            <mxPoint x="320" y="1600" as="sourcePoint"/>
            <mxPoint x="370" y="1550" as="targetPoint"/>
          </mxGeometry>
        </mxCell>
        <mxCell id="sju_CmRl1_ZW5-4BBJPR-1" value="" style="rounded=0;whiteSpace=wrap;html=1;strokeWidth=2;" parent="1" vertex="1">
          <mxGeometry x="70" y="1720" width="280" height="390" as="geometry"/>
        </mxCell>
        <mxCell id="sju_CmRl1_ZW5-4BBJPR-2" value="&lt;h1 style=&quot;font-size: 28px&quot;&gt;Regras do jogo&lt;/h1&gt;" style="text;html=1;strokeColor=none;fillColor=none;align=center;verticalAlign=middle;whiteSpace=wrap;rounded=0;" parent="1" vertex="1">
          <mxGeometry x="75" y="1640" width="270" height="70" as="geometry"/>
        </mxCell>
        <mxCell id="5Yzdhs2G_3LEEetBX_Kz-1" value="" style="endArrow=none;html=1;entryX=1;entryY=0.154;entryDx=0;entryDy=0;entryPerimeter=0;" edge="1" parent="1">
          <mxGeometry width="50" height="50" relative="1" as="geometry">
            <mxPoint x="70" y="1780" as="sourcePoint"/>
            <mxPoint x="350" y="1780.06" as="targetPoint"/>
          </mxGeometry>
        </mxCell>
        <mxCell id="5Yzdhs2G_3LEEetBX_Kz-2" value="&lt;font style=&quot;font-size: 20px&quot;&gt;Regras do jogo&lt;br&gt;&lt;/font&gt;" style="text;html=1;strokeColor=none;fillColor=none;align=center;verticalAlign=middle;whiteSpace=wrap;rounded=0;" vertex="1" parent="1">
          <mxGeometry x="115" y="1730" width="190" height="40" as="geometry"/>
        </mxCell>
        <mxCell id="5Yzdhs2G_3LEEetBX_Kz-3" value="&lt;font style=&quot;font-size: 20px&quot;&gt;Texto&lt;br&gt;&lt;/font&gt;" style="text;html=1;strokeColor=none;fillColor=none;align=center;verticalAlign=middle;whiteSpace=wrap;rounded=0;" vertex="1" parent="1">
          <mxGeometry x="120" y="1830" width="190" height="40" as="geometry"/>
        </mxCell>
        <mxCell id="5Yzdhs2G_3LEEetBX_Kz-5" value="&lt;span style=&quot;font-size: 20px&quot;&gt;A tela de informacoes sobre o projeto segue o mesmo layout dessa&lt;br&gt;&lt;/span&gt;" style="text;html=1;strokeColor=none;fillColor=none;align=center;verticalAlign=middle;whiteSpace=wrap;rounded=0;" vertex="1" parent="1">
          <mxGeometry x="430" y="1740" width="245" height="140" as="geometry"/>
        </mxCell>
      </root>
    </mxGraphModel>
  </diagram>
</mxfile>
